<svg id="Layer_1" data-name="Layer 1" xmlns="http://www.w3.org/2000/svg" viewBox="0 0 260.21 260.21"><defs><style>.cls-1{fill:#ad1800;stroke:#231f20;}.cls-1,.cls-2,.cls-3,.cls-4,.cls-5,.cls-6,.cls-7,.cls-8,.cls-9{stroke-miterlimit:10;}.cls-2{fill:#f16225;}.cls-2,.cls-3,.cls-4,.cls-5,.cls-6,.cls-7,.cls-8,.cls-9{stroke:#fff;}.cls-3{fill:#fff;}.cls-4{fill:#f1a83e;}.cls-5{fill:#fcb615;}.cls-6{fill:none;}.cls-7{fill:#fcb614;}.cls-8{fill:#d8452d;}.cls-9{fill:#982221;}</style></defs><rect class="cls-1" x="0.5" y="0.5" width="259.21" height="259.21" rx="30.04"/><path class="cls-2" d="M342.88,521s-2.37-2.51-2.8-2.33c-4.24,1.73-58.08,1.52-63-.14-.24-.08-1.59,1.84-1.94,2.35,2.79,1.38,5.94,1.62,9,1.85q12.45.91,24.92,1.31a102.68,102.68,0,0,0,12.53-.15c1.6-.14,3.19-.35,4.78-.57C331.66,522.63,337.67,521.69,342.88,521Z" transform="translate(-178.93 -339.5)"/><path class="cls-3" d="M287.4,486.9" transform="translate(-178.93 -339.5)"/><path class="cls-4" d="M360,422.83l-20.56,61.83c-3,7.78-3.78,11.27-7.74,15-3.72,3.51-18.87,2.43-22.58,2.39-6-.06-14.74.23-18.05-.19l16.47-37.05c2.52-8.42,6.31-16.32,10-24.29a36.71,36.71,0,0,1,5.3-8.91c4.57-5.25,11.48-7.81,18.27-9.28C348.28,420.79,354.74,422.32,360,422.83Z" transform="translate(-178.93 -339.5)"/><path class="cls-5" d="M404.54,563.47a134.73,134.73,0,0,1-35.82-27.94A126.14,126.14,0,0,1,349,506.46c-5.43-10.88-8-14.38-9.6-21.8L360,422.83C363.72,436.27,388.54,510.78,404.54,563.47Z" transform="translate(-178.93 -339.5)"/><path class="cls-2" d="M263.39,427.24a28.08,28.08,0,0,0-6.87,8c-8.13,15.16-23.14,62-50,128.25,25.22-7.81,38.49-21.8,44.09-28.45,8.22-9.76,13.91-21.34,17-27.64a176.45,176.45,0,0,0,9.54-23.64" transform="translate(-178.93 -339.5)"/><path class="cls-6" d="M262.19,399.7a17.33,17.33,0,0,1-.72-2Q261.78,398.74,262.19,399.7Z" transform="translate(-178.93 -339.5)"/><path class="cls-6" d="M272.17,372.19a21.94,21.94,0,0,0-9.69,10.12A21.52,21.52,0,0,1,272.17,372.19Z" transform="translate(-178.93 -339.5)"/><path class="cls-6" d="M262.07,383.26c-.13.3-.24.6-.34.91" transform="translate(-178.93 -339.5)"/><path class="cls-6" d="M262.48,382.31a21.52,21.52,0,0,1,9.69-10.12" transform="translate(-178.93 -339.5)"/><path class="cls-6" d="M274.78,371.05a16.62,16.62,0,0,0-1.69.69" transform="translate(-178.93 -339.5)"/><path class="cls-6" d="M262.19,399.7a17.33,17.33,0,0,1-.72-2" transform="translate(-178.93 -339.5)"/><path class="cls-2" d="M303.58,391.33a21.56,21.56,0,0,1-29.93,19.85c-.64-.28-1.27-.58-1.88-.91a21.79,21.79,0,0,1-5-3.71c-.49-.49-.95-1-1.39-1.53a21.56,21.56,0,0,1-3.23-5.33q-.4-1-.72-2a21.53,21.53,0,0,1-1-6.41c0-.36,0-.72,0-1.09s0-.58.06-.86c0-.44.09-.87.16-1.31s.12-.71.19-1.06c.13-.66.3-1.3.49-1.94.1-.3.19-.59.3-.88s.22-.61.34-.91.27-.64.41-.95a21.94,21.94,0,0,1,9.69-10.12c.3-.16.61-.31.92-.45.55-.25,1.12-.48,1.69-.69l.39-.13c.21-.08.42-.15.64-.21l.84-.24c.66-.17,1.34-.31,2-.42a14.12,14.12,0,0,1,1.44-.17l.81-.06c.37,0,.73,0,1.1,0a21.36,21.36,0,0,1,8.4,1.69c.64.28,1.27.58,1.88.91A21.54,21.54,0,0,1,303.58,391.33Z" transform="translate(-178.93 -339.5)"/><path class="cls-6" d="M280.12,369.88l.55-.05h.26" transform="translate(-178.93 -339.5)"/><path class="cls-6" d="M260.94,387c-.08.35-.14.71-.19,1.06" transform="translate(-178.93 -339.5)"/><path class="cls-6" d="M260.53,390.22a2.44,2.44,0,0,1,0-.27c0-.2,0-.39,0-.59" transform="translate(-178.93 -339.5)"/><circle class="cls-7" cx="347.07" cy="391.33" r="21.54" transform="translate(-353.98 20.54) rotate(-45)"/><path class="cls-6" d="M263.39,427.24l-.15-.62" transform="translate(-178.93 -339.5)"/><path class="cls-8" d="M307.49,464.83,291,501.88c-5.67-.71-11.57-5.4-13.91-18.14-2.28-9.5-4.57-18.88-6.86-28.25s-4.58-18.75-6.86-28.25a31.52,31.52,0,0,1,12.19-6.53c6.48-1.52,13.22-1.29,19.83-.63C298.4,435.54,302.77,449.81,307.49,464.83Z" transform="translate(-178.93 -339.5)"/><path class="cls-9" d="M371,565c-13.22,0-25.17.08-35.64.1l-26.79,0c-14.24,0-35.16,0-63.19.13,9-10.76,27.23-45,27.23-45a24.77,24.77,0,0,0,2.54.69h0c4.26,1,14.22,2.64,33,2.8,22.42.18,36.17-3,36.17-3s5.51,10.73,12,22C361.35,551.35,366.91,560.31,371,565Z" transform="translate(-178.93 -339.5)"/><path class="cls-6" d="M346.88,539.59" transform="translate(-178.93 -339.5)"/><path class="cls-6" d="M275.16,520.88a.86.86,0,0,1-.07.12" transform="translate(-178.93 -339.5)"/><path class="cls-6" d="M287.74,519.14c0-7.46,9.5-17.1,21-17.07s20.58,9.71,20.57,17.17" transform="translate(-178.93 -339.5)"/><path class="cls-6" d="M288.6,519.22c0-5.34,9.09-12.24,20.08-12.21s19.71,7,19.7,12.3" transform="translate(-178.93 -339.5)"/><line class="cls-6" x1="112.86" y1="203.2" x2="81.16" y2="203.2"/></svg>